<svg width="63" height="63" viewBox="0 0 63 63" fill="none" xmlns="http://www.w3.org/2000/svg">
<circle cx="31.5" cy="31.5" r="31.5" fill="white"/>
<path d="M18 35C18 29.3908 20.5394 24.7241 25.6181 21L29.895 24.5862C28.7812 25.1839 27.6452 26.1264 26.4869 27.4138C25.3286 28.7011 24.5935 29.9425 24.2816 31.1379C24.8162 31 25.3286 30.931 25.8186 30.931C27.2442 30.931 28.4471 31.4598 29.4272 32.5172C30.4519 33.5747 30.9642 34.931 30.9642 36.5862C30.9642 38.3333 30.3628 39.8506 29.1599 41.1379C27.957 42.3793 26.5091 43 24.8162 43C22.9451 43 21.3413 42.2874 20.0048 40.8621C18.6683 39.3908 18 37.4368 18 35ZM33.0358 35C33.0358 29.3908 35.5752 24.7241 40.6539 21L44.9308 24.5862C43.817 25.1379 42.681 26.0805 41.5227 27.4138C40.4089 28.7011 39.6738 29.9425 39.3174 31.1379C39.852 31 40.3644 30.931 40.8544 30.931C42.3246 30.931 43.5497 31.4598 44.5298 32.5172C45.5099 33.5747 46 34.931 46 36.5862C46 38.3333 45.3986 39.8506 44.1957 41.1379C42.9928 42.3793 41.5672 43 39.9189 43C38.0477 43 36.4216 42.2874 35.0406 40.8621C33.7041 39.3908 33.0358 37.4368 33.0358 35Z" fill="#E85462"/>
</svg>
