<svg width="31" height="30" viewBox="0 0 31 30" fill="none" xmlns="http://www.w3.org/2000/svg">
<path d="M10.9741 18.75H20.0116M10.9741 22.5H15.4928M24.5303 2.5H6.45537C6.11296 2.5 5.78457 2.6317 5.54245 2.86612C5.30033 3.10054 5.16431 3.41848 5.16431 3.75V26.25C5.16431 26.5815 5.30033 26.8995 5.54245 27.1339C5.78457 27.3683 6.11296 27.5 6.45537 27.5H24.5303C24.8727 27.5 25.2011 27.3683 25.4432 27.1339C25.6854 26.8995 25.8214 26.5815 25.8214 26.25V3.75C25.8214 3.41848 25.6854 3.10054 25.4432 2.86612C25.2011 2.6317 24.8727 2.5 24.5303 2.5Z" stroke="#65963C" stroke-width="2.5" stroke-linecap="round" stroke-linejoin="round"/>
<path d="M19.3658 8.125L14.2015 13.125L11.6194 10.625" stroke="#65963C" stroke-width="2.5" stroke-linecap="round" stroke-linejoin="round"/>
</svg>
