<svg width="30" height="30" viewBox="0 0 30 30" fill="none" xmlns="http://www.w3.org/2000/svg">
<path d="M14.2941 1.54297C15.6602 1.54297 16.4327 1.74118 17.3402 2.63047L17.4452 2.736L24.3763 9.77958C25.2077 10.6314 25.4713 11.2603 25.5371 12.3698L25.55 12.6574L25.5554 12.9676L25.5564 24.5326C25.5564 27.0923 24.3141 28.4096 21.8182 28.461L21.6639 28.4626H8.33C5.795 28.4626 4.49054 27.2085 4.43911 24.6885L4.4375 24.5326V5.48529C4.4375 2.92618 5.69161 1.59654 8.17625 1.54458L8.33 1.54297H14.2941ZM14.0177 3.56422H8.44304C7.17875 3.56422 6.50375 4.23493 6.46089 5.4044L6.45875 5.52333V24.4951C6.45875 25.7101 7.09411 26.3958 8.30696 26.4387L8.43018 26.4414H21.5637C22.8275 26.4414 23.4912 25.7942 23.533 24.6146L23.5352 24.4951V13.2199H16.378C14.8657 13.2199 14.0637 12.4855 14.0193 10.993L14.0177 10.859V3.56422ZM9.70732 17.6439C10.1696 17.6439 10.5441 18.0189 10.5441 18.4812V24.3419C10.5441 24.8037 10.1691 25.1787 9.70732 25.1787H8.87C8.40768 25.1787 8.03268 24.8037 8.03268 24.3414V18.4806C8.03268 18.0189 8.40768 17.6439 8.87 17.6439H9.70732ZM17.2421 20.1553C17.7045 20.1553 18.0789 20.5303 18.0789 20.9926V24.3414C18.0789 24.8037 17.7039 25.1787 17.2421 25.1787H16.4048C15.9425 25.1787 15.5675 24.8037 15.5675 24.3414V20.9931C15.5675 20.5303 15.9425 20.1553 16.4048 20.1553H17.2421ZM13.4745 15.1324C13.9368 15.1324 14.3118 15.5074 14.3118 15.9692V24.3414C14.3118 24.8037 13.9368 25.1787 13.4745 25.1787H12.6371C12.1748 25.1787 11.8004 24.8037 11.8004 24.3414V15.9698C11.8004 15.5074 12.1754 15.133 12.6371 15.133L13.4745 15.1324ZM15.9136 3.95368V10.6206C15.9136 11.0937 16.0914 11.2994 16.5205 11.3219L16.6041 11.324H23.1452L15.9136 3.95368Z" fill="#65963C" stroke="#65963C" stroke-width="0.3"/>
</svg>
