<svg width="30" height="30" viewBox="0 0 30 30" fill="none" xmlns="http://www.w3.org/2000/svg">
<path d="M14.6375 22.4875C12.7133 22.3965 10.8981 21.5678 9.56892 20.1735C8.23976 18.7791 7.49882 16.9264 7.5 15C7.5 10.8625 10.8625 7.5 15 7.5C19.025 7.5 22.3 10.6625 22.4875 14.6375L19.8625 13.85C19.6582 12.9835 19.2262 12.1872 18.6111 11.5436C17.996 10.9 17.2202 10.4323 16.3638 10.1889C15.5074 9.94546 14.6016 9.93518 13.7399 10.1591C12.8783 10.383 12.092 10.833 11.4625 11.4625C10.833 12.092 10.383 12.8783 10.1591 13.7399C9.93518 14.6016 9.94546 15.5074 10.1889 16.3638C10.4323 17.2202 10.9 17.996 11.5436 18.6111C12.1872 19.2262 12.9835 19.6582 13.85 19.8625L14.6375 22.4875ZM27.5 15C27.5 15.375 27.4875 15.75 27.45 16.125L24.9875 15.3875C25 15.2625 25 15.125 25 15C25 9.475 20.525 5 15 5C9.475 5 5 9.475 5 15C5 20.525 9.475 25 15 25C15.125 25 15.2625 25 15.3875 24.9875L16.125 27.45C15.75 27.4875 15.375 27.5 15 27.5C8.1 27.5 2.5 21.9 2.5 15C2.5 8.1 8.1 2.5 15 2.5C21.9 2.5 27.5 8.1 27.5 15ZM22.7875 20.325L27.5 18.75L15 15L18.75 27.5L20.325 22.7875L25.6625 28.125L28.1375 25.65L22.7875 20.325Z" fill="#65963C"/>
</svg>
