<svg width="30" height="30" viewBox="0 0 30 30" fill="none" xmlns="http://www.w3.org/2000/svg">
<path d="M25 11.1875L19.4111 5L5.625 11.1875V18.75H25V11.1875Z" stroke="#65963C" stroke-width="2.5" stroke-linecap="round" stroke-linejoin="round"/>
<path d="M5.625 11.25H16.4912C16.5306 11.25 16.5625 11.2819 16.5625 11.3213V13.5156C16.5625 14.508 17.367 15.3125 18.3594 15.3125C19.3518 15.3125 20.1562 14.508 20.1562 13.5156V11.3213C20.1562 11.2819 20.1882 11.25 20.2275 11.25H25" stroke="#65963C" stroke-width="2.5" stroke-linecap="round" stroke-linejoin="round"/>
<path d="M5.9375 14.9729C5.56148 15.1608 5.21109 15.3605 4.88902 15.5705C3.38648 16.5505 2.5 17.7573 2.5 19.0623C2.5 22.3415 8.09644 24.9998 15 24.9998C21.9036 24.9998 27.5 22.3415 27.5 19.0623C27.5 17.7255 26.5698 16.4917 25 15.4993" stroke="#65963C" stroke-width="2.5"/>
</svg>
