<svg width="30" height="30" viewBox="0 0 30 30" fill="none" xmlns="http://www.w3.org/2000/svg">
<path d="M2.5 7.5H27.5V12.5L26.6263 13.025C25.9463 13.433 25.1683 13.6485 24.3753 13.6485C23.5824 13.6485 22.8043 13.433 22.1244 13.025L21.25 12.5L20.3763 13.025C19.6963 13.433 18.9183 13.6485 18.1253 13.6485C17.3324 13.6485 16.5543 13.433 15.8744 13.025L15 12.5L14.1262 13.025C13.4463 13.433 12.6683 13.6485 11.8753 13.6485C11.0824 13.6485 10.3043 13.433 9.62438 13.025L8.75 12.5L7.87562 13.025C7.19575 13.4329 6.41783 13.6483 5.625 13.6483C4.83217 13.6483 4.05425 13.4329 3.37438 13.025L2.5 12.5V7.5Z" stroke="#65963C" stroke-width="2.5" stroke-linecap="round" stroke-linejoin="round"/>
<path d="M5 14.0556V27.5H25V13.75M5 7.38875V2.5H25V7.5" stroke="#65963C" stroke-width="2.5" stroke-linecap="round" stroke-linejoin="round"/>
<path d="M11.875 20H18.125V27.5H11.875V20Z" stroke="#65963C" stroke-width="2.5" stroke-linecap="round" stroke-linejoin="round"/>
</svg>
