<svg width="30" height="30" viewBox="0 0 30 30" fill="none" xmlns="http://www.w3.org/2000/svg">
<g clip-path="url(#clip0_1_93)">
<path d="M29.0625 11.25C29.5803 11.25 30 11.6697 30 12.1875V27.125C30 27.6773 29.5523 28.125 29 28.125H14.125C13.5727 28.125 13.125 27.6773 13.125 27.125V25.375C13.125 24.8227 12.6773 24.375 12.125 24.375H2.875C2.32272 24.375 1.875 23.9273 1.875 23.375V16C1.875 15.4477 2.32272 15 2.875 15H8.375C8.92728 15 9.375 14.5523 9.375 14V10.375C9.375 9.82272 9.82272 9.375 10.375 9.375H15.875C16.4273 9.375 16.875 8.92728 16.875 8.375V4.75C16.875 4.19772 17.3227 3.75 17.875 3.75H27.125C27.6773 3.75 28.125 4.19772 28.125 4.75V10.3125C28.125 10.8303 28.5447 11.25 29.0625 11.25ZM12.125 22.5C12.6773 22.5 13.125 22.0523 13.125 21.5V19.75C13.125 19.1977 13.5727 18.75 14.125 18.75H19.625C20.1773 18.75 20.625 18.3023 20.625 17.75V12.25C20.625 11.6977 21.0727 11.25 21.625 11.25H25.25C25.8023 11.25 26.25 10.8023 26.25 10.25V6.625C26.25 6.07272 25.8023 5.625 25.25 5.625H19.75C19.1977 5.625 18.75 6.07272 18.75 6.625V10.25C18.75 10.8023 18.3023 11.25 17.75 11.25H12.25C11.6977 11.25 11.25 11.6977 11.25 12.25V15.875C11.25 16.4273 10.8023 16.875 10.25 16.875H4.75C4.19772 16.875 3.75 17.3227 3.75 17.875V21.5C3.75 22.0523 4.19772 22.5 4.75 22.5H12.125ZM28.125 14.125C28.125 13.5727 27.6773 13.125 27.125 13.125H23.5C22.9477 13.125 22.5 13.5727 22.5 14.125V19.625C22.5 20.1773 22.0523 20.625 21.5 20.625H16C15.4477 20.625 15 21.0727 15 21.625V25.25C15 25.8023 15.4477 26.25 16 26.25H27.125C27.6773 26.25 28.125 25.8023 28.125 25.25V14.125Z" fill="#65963C" stroke="#65963C" stroke-width="0.5"/>
</g>
<defs>
<clipPath id="clip0_1_93">
<rect width="30" height="30" fill="white"/>
</clipPath>
</defs>
</svg>
